:SAMPLES-PER-SECOND 30
:FULLY-SPECIFIED
:DEGREES
133
root  34.83340646 36.48085707 -14.7096679 11.60982323 13.43246841 4.672162056
lowerback  -8.55576992 3.59844017 3.482260227
upperback  -4.438690186 4.183300018 -4.927649975
thorax  0.7989869714 1.83197999 -6.711279869
lowerneck  -15.89410019 -1.378900051 1.413800001
upperneck  11.2493 -3.302380085 6.306300163
head  6.117350101 -1.104120135 1.450839996
lclavicle  0 -4.497500157e-015 -2.743230041e-014
lhumerus  -43.22359848 26.28580093 68.34760284
lradius  -0.4877858758 -6.507048965e-006 26.61939812
lwrist  4.824992743e-007 -3.790274832e-007 -32.10160065
lhand  -4.408200441e-031 -36.77090073 -10.72990036
lfingers  90 7.125020027 -90
lthumb  94.76712942 -25.56932825 100.9359658
rclavicle  0 -4.497500157e-015 -2.743230041e-014
rhumerus  69.24269867 -0.8619291782 -52.94680023
rradius  -5.16745672e-007 2.214343908e-008 51.46440125
rwrist  1.129822067e-006 0.001802438172 -165.0310059
rhand  -1.770409408e-031 4.240640163 -4.992919922
rfingers  -90 -7.125020027 -90
rthumb  -83.81582689 -10.71817173 -59.77392075
rfemur  -13.88822269 10.16814327 15.12219715
rtibia  -3.140387297 2.65148735 24.03541756
rfoot  -2.731993675 -13.68128681 -45.41918182
rtoes  4.030930171 19.60589197 -101.8604549
lfemur  -11.99500084 -22.93624306 -18.45153618
ltibia  3.704599857 2.692267179 14.40122318
lfoot  0.751077652 -30.22070885 28.45173645
ltoes  -8.606805488 -18.12218031 -115.9480143
134
root  34.82839029 36.48073392 -14.71387458 11.67108631 13.66745186 4.753501415
lowerback  -8.562890053 3.617150307 3.561450243
upperback  -4.438690186 4.204400063 -4.935170174
thorax  0.8117930293 1.842800021 -6.762050152
lowerneck  -15.91590023 -1.439659953 1.329620004
upperneck  11.30650043 -3.381210089 6.371459961
head  6.143980026 -1.13906014 1.477329969
lclavicle  0 -4.497500157e-015 -2.743230041e-014
lhumerus  -43.20949936 26.31520081 68.33439636
lradius  -0.4873425663 -6.507048965e-006 26.60490227
lwrist  4.824992743e-007 -3.790274832e-007 -32.22819901
lhand  -0 -36.78480148 -10.59710026
lfingers  90 7.125020027 -90
lthumb  94.74572055 -25.43851919 100.9387824
rclavicle  0 -4.497500157e-015 -2.743230041e-014
rhumerus  69.63059998 -0.9512603879 -53.04800034
rradius  -5.16745672e-007 2.214343908e-008 50.69219971
rwrist  1.129822067e-006 0.001802438172 -164.6349945
rhand  -1.770447676e-031 4.257309914 -5.060579777
rfingers  -90 -7.125020027 -90
rthumb  -83.84604502 -10.66047534 -59.76399057
rfemur  -13.95604229 10.09488869 15.11683273
rtibia  -3.224160671 2.630694866 24.15659523
rfoot  -2.81796813 -13.61903954 -45.57247162
rtoes  4.015721144 19.60889492 -101.8151324
lfemur  -12.06638527 -23.07838058 -18.47842026
ltibia  3.716875553 2.702058792 14.39118576
lfoot  0.7400137186 -30.22849655 28.32266426
ltoes  -8.611367557 -18.12006978 -115.9626821
135
root  34.82562388 36.47909089 -14.71870603 11.73376656 13.87379742 4.828230381
lowerback  -8.577579498 3.656699896 3.646509409
upperback  -4.423989773 4.254030228 -4.959370136
thorax  0.8499159813 1.869130015 -6.829919815
lowerneck  -15.9282999 -1.509089947 1.248299956
upperneck  11.31130028 -3.472929955 6.460189819
head  6.153329849 -1.180320024 1.509500027
lclavicle  0 -4.497500157e-015 -2.743230041e-014
lhumerus  -43.14580154 26.30340004 68.33799744
lradius  -0.4868919253 -6.507048965e-006 26.60329819
lwrist  4.824992743e-007 -3.790274832e-007 -32.38959885
lhand  -4.406287275e-031 -36.73759842 -10.57499981
lfingers  90 7.125020027 -90
lthumb  94.71903742 -25.41831517 100.8863553
rclavicle  0 -4.497500157e-015 -2.743230041e-014
rhumerus  70.00050354 -1.056049824 -53.17259979
rradius  -5.16745672e-007 2.214343908e-008 49.92419815
rwrist  1.129822067e-006 0.001802438172 -164.2599945
rhand  -1.770298135e-031 4.191790104 -5.394219875
rfingers  -90 -7.125020027 -90
rthumb  -84.03392151 -10.36903666 -59.85938344
rfemur  -14.04036903 9.997411728 15.11398029
rtibia  -3.308096647 2.63361764 24.28605652
rfoot  -2.876492023 -13.50717258 -45.63512802
rtoes  4.033239797 19.6054349 -101.8673381
lfemur  -12.12020874 -23.1404438 -18.50644112
ltibia  3.737859726 2.735050201 14.35566998
lfoot  0.7397741079 -30.27539253 28.19514084
ltoes  -8.59651324 -18.12693663 -115.9149292
136
root  34.82315784 36.47688017 -14.72269794 11.80972385 14.07189465 4.892602921
lowerback  -8.569369316 3.706339836 3.733389378
upperback  -4.407090187 4.318009853 -4.991439819
thorax  0.8807489872 1.902719975 -6.906690121
lowerneck  -15.98499966 -1.590710044 1.207299948
upperneck  11.37119961 -3.584850073 6.487569809
head  6.186349869 -1.231520057 1.513409972
lclavicle  0 -4.497500157e-015 -2.743230041e-014
lhumerus  -43.02640152 26.34749985 68.34220123
lradius  -0.4864346385 -6.507048965e-006 26.51669884
lwrist  4.824992743e-007 -3.790274832e-007 -32.45569992
lhand  -4.422448222e-031 -37.01720047 -10.8270998
lfingers  90 7.125020027 -90
lthumb  94.90375899 -25.65577775 101.2085638
rclavicle  0 -4.497500157e-015 -2.743230041e-014
rhumerus  70.32700348 -1.190300584 -53.15629959
rradius  -5.16745672e-007 2.214343908e-008 49.22980118
rwrist  1.129822067e-006 0.001802438172 -163.8970032
rhand  -1.771150261e-031 4.552420139 -5.219560146
rfingers  -90 -7.125020027 -90
rthumb  -83.8494512 -10.53667546 -59.48931738
rfemur  -14.13182449 9.91789341 15.11331272
rtibia  -3.378123522 2.629594088 24.40195465
rfoot  -2.940249443 -13.43551636 -45.71744919
rtoes  4.027376826 19.60659462 -101.8498654
lfemur  -12.18063545 -23.12590599 -18.52606964
ltibia  3.761124849 2.783648491 14.30837536
lfoot  0.7286567688 -30.34110641 28.01978302
ltoes  -8.584923341 -18.13228411 -115.8776827
137
root  34.82054463 36.4738164 -14.72602604 11.87672901 14.28110218 4.932476044
lowerback  -8.542949677 3.730469704 3.745980024
upperback  -4.40335989 4.351650238 -5.010769844
thorax  0.8773819804 1.920050025 -6.931970119
lowerneck  -16.04999924 -1.658310056 1.195770025
upperneck  11.44849968 -3.680830002 6.484469891
head  6.224840164 -1.275249958 1.504320025
lclavicle  0 -4.497500157e-015 -2.743230041e-014
lhumerus  -42.97639847 25.79240227 68.68920135
lradius  -0.4859713912 -6.507048965e-006 26.83740044
lwrist  4.824992743e-007 -3.790274832e-007 -31.9314003
lhand  -4.434992872e-031 -37.23160172 -10.94869995
lfingers  90 7.125020027 -90
lthumb  95.0316507 -25.76711055 101.4495838
rclavicle  0 -4.497500157e-015 -2.743230041e-014
rhumerus  70.66649628 -1.335750937 -53.32089996
rradius  -5.16745672e-007 2.214343908e-008 48.49449921
rwrist  1.129822067e-006 0.001802438172 -163.5119934
rhand  -1.771105726e-031 4.534289837 -5.235429764
rfingers  -90 -7.125020027 -90
rthumb  -83.86245778 -10.52215557 -59.50860672
rfemur  -14.22172546 9.834291458 15.13366222
rtibia  -3.437714577 2.667817593 24.51296234
rfoot  -2.990939379 -13.31166744 -45.7809639
rtoes  4.018244371 19.60839754 -101.8226511
lfemur  -12.28343105 -23.16337204 -18.49872971
ltibia  3.754502058 2.822666645 14.33023167
lfoot  0.7159287333 -30.41215515 27.86162758
ltoes  -8.566979469 -18.1405455 -115.8200374
